/* XPM */
static char * wmHGmail_master[] = {
"64 64 42 1",
" 	c None",
".	c #F0F4F8",
"+	c #F0F0F8",
"@	c #E8F0F8",
"#	c #E8ECF8",
"$	c #E8E8F8",
"%	c #E0E8F0",
"&	c #E0E4F0",
"*	c #E0E0F0",
"=	c #D8E0E8",
"-	c #D8DCE8",
";	c #D8D8E8",
">	c #D8D8E0",
",	c #D0D8E0",
"'	c #D0D4E0",
")	c #D0D0E0",
"!	c #D0D0D8",
"~	c #C8D0D8",
"{	c #C8CCD8",
"]	c #A0A4B0",
"^	c #000000",
"/	c #505460",
"(	c #98A0A8",
"_	c #D2DAE4",
":	c #D0D0D0",
"<	c #505060",
"[	c #485058",
"}	c #484C58",
"|	c #484858",
"1	c #484850",
"2	c #404850",
"3	c #404450",
"4	c #404050",
"5	c #404048",
"6	c #384048",
"7	c #383C48",
"8	c #383848",
"9	c #303840",
"0	c #303440",
"a	c #303040",
"b	c #283038",
"c	c #282C38",
"..+++@@@#######$$%%%%&&&&&&**====-------;>,,,,'''''')!~~~~~{{{]^",
".+++@@@#######$$%%%%&&&&&&**====-------;>,,,,'''''')!~~~~~{{{{/^",
"++((((((((((((((((((((((((((((((((((((((((((((((((((((((((((((/^",
"++((((((((((((((((((((((((((((((((((((((((((((((((((((((((((((/^",
"+@((^^^^^^^^^^^^^^^^^^^^^^^^^^^^^^^^^^^^^^^^^^^^^^^^^^^^^^^^((/^",
"@@((^______________________________________________________:((/^",
"@@((^______________________________________________________:((<^",
"@#((^______________________________________________________:((<^",
"##((^______________________________________________________:((<^",
"##((^______________________________________________________:(([^",
"##((^______________________________________________________:(([^",
"##((^______________________________________________________:(([^",
"##((^______________________________________________________:((}^",
"##((^______________________________________________________:((}^",
"#$((^______________________________________________________:((}^",
"$$((^______________________________________________________:((}^",
"$%((^______________________________________________________:((}^",
"%%((^______________________________________________________:((}^",
"%%((^______________________________________________________:((|^",
"%%((^______________________________________________________:((|^",
"%&((^______________________________________________________:((|^",
"&&((^______________________________________________________:((1^",
"&&((^______________________________________________________:((2^",
"&&((^______________________________________________________:((2^",
"&&((^______________________________________________________:((2^",
"&&((^______________________________________________________:((3^",
"&*((^______________________________________________________:((3^",
"**((^______________________________________________________:((3^",
"*=((^______________________________________________________:((3^",
"==((^______________________________________________________:((3^",
"==((^______________________________________________________:((3^",
"==((^______________________________________________________:((4^",
"=-((^______________________________________________________:((4^",
"--((^______________________________________________________:((5^",
"--((^______________________________________________________:((6^",
"--((^______________________________________________________:((6^",
"--((^______________________________________________________:((6^",
"--((^______________________________________________________:((7^",
"--((^______________________________________________________:((7^",
"-;((^______________________________________________________:((7^",
";>((^______________________________________________________:((7^",
">,((^______________________________________________________:((7^",
",,((^______________________________________________________:((7^",
",,((^______________________________________________________:((7^",
",,((^______________________________________________________:((8^",
",'((^______________________________________________________:((8^",
"''((^______________________________________________________:((9^",
"''((^______________________________________________________:((9^",
"''((^______________________________________________________:((9^",
"''((^______________________________________________________:((9^",
"''((^______________________________________________________:((0^",
"')((^______________________________________________________:((0^",
")!((^______________________________________________________:((0^",
"!~((^______________________________________________________:((0^",
"~~((^______________________________________________________:((0^",
"~~((^______________________________________________________:((0^",
"~~((^______________________________________________________:((a^",
"~~((^______________________________________________________:((a^",
"~{((^______________________________________________________:((b^",
"{{((::::::::::::::::::::::::::::::::::::::::::::::::::::::::((b^",
"{{((((((((((((((((((((((((((((((((((((((((((((((((((((((((((((b^",
"{{((((((((((((((((((((((((((((((((((((((((((((((((((((((((((((b^",
"]/////<<<[[[}}}}}}|||12223333334456667777777889999000000aabbbbc^",
"^^^^^^^^^^^^^^^^^^^^^^^^^^^^^^^^^^^^^^^^^^^^^^^^^^^^^^^^^^^^^^^^"};
